<svg width="114" height="114" viewBox="0 0 114 114" fill="none" xmlns="http://www.w3.org/2000/svg">
<mask id="mask0_929_6686" style="mask-type:alpha" maskUnits="userSpaceOnUse" x="0" y="0" width="114" height="114">
<rect width="114" height="114" rx="27" fill="#D9D9D9"/>
</mask>
<g mask="url(#mask0_929_6686)">
<rect width="114" height="114" rx="27" fill="white"/>
</g>
<path d="M55.3944 49.8004C55.8954 49.0701 56.4411 48.9778 56.884 48.9778C57.3269 48.9778 58.0624 49.0701 58.5634 49.8004C62.4915 55.1522 68.977 65.8163 73.762 73.6858C76.8834 78.8135 79.2799 82.7549 79.7729 83.2558C81.6184 85.1382 84.1493 83.965 85.6204 81.8295C87.0677 79.7284 87.4684 78.252 87.4684 76.6781C87.4684 75.6051 66.4883 36.9033 64.3765 33.6816C62.3465 30.5839 61.6822 29.8009 58.2074 29.8009H55.6027C52.1359 29.8009 51.635 30.5839 49.6024 33.6816C47.4906 36.9033 26.5078 75.6051 26.5078 76.6754C26.5078 78.252 26.9112 79.7284 28.3612 81.8295C29.8323 83.965 32.3632 85.1382 34.2086 83.2532C34.699 82.7523 37.0954 78.8135 40.2169 73.6832C45.0019 65.8163 51.4663 55.1522 55.3971 49.7977L55.3944 49.8004Z" fill="black"/>
</svg>
